<svg width="44" height="44" viewBox="0 0 44 44" fill="none" xmlns="http://www.w3.org/2000/svg">
<path fill-rule="evenodd" clip-rule="evenodd" d="M25.6748 20.5828L23.7578 11.6608L17.7488 12.9253L19.6643 21.8473L11 23.6689L12.53 30.796L27.767 34L31.2512 26.2561L32.909 10.636L26.798 10L25.6748 20.5828ZM20.8136 25.4656C20.3738 25.321 20.1782 24.7945 20.345 24.1576C20.4692 23.6851 21.0536 23.6146 21.3461 23.6092C21.4571 23.6074 21.5666 23.6296 21.6671 23.6746C21.8741 23.7676 22.2242 23.965 22.2953 24.2665C22.3982 24.7015 22.2992 25.0666 21.9851 25.3513C21.6701 25.6372 21.2549 25.6111 20.8139 25.4659L20.8136 25.4656ZM24.9782 26.002C24.581 25.8094 24.584 25.3189 24.6272 25.0198C24.6506 24.8569 24.7166 24.7033 24.8198 24.5737C24.9617 24.3955 25.1987 24.1636 25.4723 24.1567C25.9178 24.1447 26.3009 24.3427 26.5172 24.7003C26.7344 25.0567 26.6258 25.4497 26.3972 25.8433C26.1671 26.2354 25.568 26.2876 24.9782 26.002Z" fill="#00CCBC"/>
</svg>
