<svg width="37" height="40" viewBox="0 0 37 40" fill="none" xmlns="http://www.w3.org/2000/svg">
<g clip-path="url(#clip0_83_2)">
<path d="M37 38.5H0V1.5H37V38.5ZM9.19629 16.4902H10.5146V16.1875C10.5146 12.8051 12.7163 10.5049 16.1826 10.5049H16.501V26.8643C16.501 28.4835 15.6507 29.584 13.7998 29.584H12.7275V31.1445H24.2744V29.584H23.2012C21.3504 29.5839 20.501 28.4835 20.501 26.8643V10.5049H20.8193C24.2855 10.505 26.4863 12.8052 26.4863 16.1875V16.4902H27.8057V8.94336H9.19629V16.4902ZM9.19531 17.8467V22.2871H13.6211V17.8467H9.19531ZM23.3799 22.2871H27.8047V17.8467H23.3799V22.2871Z" fill="#E20074"/>
</g>
<defs>
<clipPath id="clip0_83_2">
<rect width="37" height="40" fill="white"/>
</clipPath>
</defs>
</svg>
