<svg width="156" height="44" viewBox="0 0 156 44" fill="none" xmlns="http://www.w3.org/2000/svg">
<g clip-path="url(#clip0_693_285)">
<path d="M0 18.4125L12.739 0L9.87586 18.4125H0Z" fill="url(#paint0_linear_693_285)"/>
<path d="M2.57722 30.8876L9.87586 18.4121H0L2.57722 30.8876Z" fill="url(#paint1_linear_693_285)"/>
<path d="M11.053 38.4315L2.57715 30.8881L13.7395 26.9287L11.053 38.4315Z" fill="url(#paint2_linear_693_285)"/>
<path d="M19.7514 32.6801L13.7393 26.9287L11.0527 38.4315L19.7514 32.6801Z" fill="url(#paint3_linear_693_285)"/>
<path d="M25.6206 12.6406L13.7393 26.9283L19.7514 32.6797L25.6206 12.6406Z" fill="url(#paint4_linear_693_285)"/>
<path d="M12.7391 0L25.621 12.6409L9.87598 18.4125L12.7391 0Z" fill="url(#paint5_linear_693_285)"/>
<path d="M13.7397 26.9283L9.87598 18.4122L25.621 12.6406L13.7397 26.9283Z" fill="url(#paint6_linear_693_285)"/>
<path d="M2.57715 30.8876L9.87578 18.4121L13.7395 26.9282L2.57715 30.8876Z" fill="url(#paint7_linear_693_285)"/>
</g>
<path d="M52.432 30.168C50.88 30.168 49.464 29.808 48.184 29.088C46.904 28.352 45.888 27.336 45.136 26.04C44.4 24.728 44.032 23.256 44.032 21.624C44.032 19.992 44.4 18.528 45.136 17.232C45.888 15.92 46.904 14.904 48.184 14.184C49.464 13.448 50.88 13.08 52.432 13.08C54 13.08 55.424 13.448 56.704 14.184C57.984 14.904 58.992 15.912 59.728 17.208C60.464 18.504 60.832 19.976 60.832 21.624C60.832 23.272 60.464 24.744 59.728 26.04C58.992 27.336 57.984 28.352 56.704 29.088C55.424 29.808 54 30.168 52.432 30.168ZM52.432 28.272C53.6 28.272 54.648 28 55.576 27.456C56.52 26.912 57.256 26.136 57.784 25.128C58.328 24.12 58.6 22.952 58.6 21.624C58.6 20.28 58.328 19.112 57.784 18.12C57.256 17.112 56.528 16.336 55.6 15.792C54.672 15.248 53.616 14.976 52.432 14.976C51.248 14.976 50.192 15.248 49.264 15.792C48.336 16.336 47.6 17.112 47.056 18.12C46.528 19.112 46.264 20.28 46.264 21.624C46.264 22.952 46.528 24.12 47.056 25.128C47.6 26.136 48.336 26.912 49.264 27.456C50.208 28 51.264 28.272 52.432 28.272ZM68.3712 30.216C67.3632 30.216 66.4592 30.048 65.6592 29.712C64.8592 29.36 64.2272 28.88 63.7632 28.272C63.2992 27.648 63.0432 26.936 62.9952 26.136H65.2512C65.3152 26.792 65.6192 27.328 66.1632 27.744C66.7232 28.16 67.4512 28.368 68.3472 28.368C69.1792 28.368 69.8352 28.184 70.3152 27.816C70.7952 27.448 71.0352 26.984 71.0352 26.424C71.0352 25.848 70.7792 25.424 70.2672 25.152C69.7552 24.864 68.9632 24.584 67.8912 24.312C66.9152 24.056 66.1152 23.8 65.4912 23.544C64.8832 23.272 64.3552 22.88 63.9072 22.368C63.4752 21.84 63.2592 21.152 63.2592 20.304C63.2592 19.632 63.4592 19.016 63.8592 18.456C64.2592 17.896 64.8272 17.456 65.5632 17.136C66.2992 16.8 67.1392 16.632 68.0832 16.632C69.5392 16.632 70.7152 17 71.6112 17.736C72.5072 18.472 72.9872 19.48 73.0512 20.76H70.8672C70.8192 20.072 70.5392 19.52 70.0272 19.104C69.5312 18.688 68.8592 18.48 68.0112 18.48C67.2272 18.48 66.6032 18.648 66.1392 18.984C65.6752 19.32 65.4432 19.76 65.4432 20.304C65.4432 20.736 65.5792 21.096 65.8512 21.384C66.1392 21.656 66.4912 21.88 66.9072 22.056C67.3392 22.216 67.9312 22.4 68.6832 22.608C69.6272 22.864 70.3952 23.12 70.9872 23.376C71.5792 23.616 72.0832 23.984 72.4992 24.48C72.9312 24.976 73.1552 25.624 73.1712 26.424C73.1712 27.144 72.9712 27.792 72.5712 28.368C72.1712 28.944 71.6032 29.4 70.8672 29.736C70.1472 30.056 69.3152 30.216 68.3712 30.216ZM92.0703 16.608C93.0943 16.608 94.0063 16.824 94.8063 17.256C95.6063 17.672 96.2383 18.304 96.7023 19.152C97.1663 20 97.3983 21.032 97.3983 22.248V30H95.2383V22.56C95.2383 21.248 94.9103 20.248 94.2543 19.56C93.6143 18.856 92.7423 18.504 91.6383 18.504C90.5023 18.504 89.5983 18.872 88.9263 19.608C88.2543 20.328 87.9183 21.376 87.9183 22.752V30H85.7583V22.56C85.7583 21.248 85.4303 20.248 84.7743 19.56C84.1343 18.856 83.2623 18.504 82.1583 18.504C81.0223 18.504 80.1183 18.872 79.4463 19.608C78.7743 20.328 78.4383 21.376 78.4383 22.752V30H76.2543V16.848H78.4383V18.744C78.8703 18.056 79.4463 17.528 80.1663 17.16C80.9023 16.792 81.7103 16.608 82.5903 16.608C83.6943 16.608 84.6703 16.856 85.5183 17.352C86.3663 17.848 86.9983 18.576 87.4143 19.536C87.7823 18.608 88.3903 17.888 89.2383 17.376C90.0863 16.864 91.0303 16.608 92.0703 16.608ZM102.109 14.712C101.693 14.712 101.341 14.568 101.053 14.28C100.765 13.992 100.621 13.64 100.621 13.224C100.621 12.808 100.765 12.456 101.053 12.168C101.341 11.88 101.693 11.736 102.109 11.736C102.509 11.736 102.845 11.88 103.117 12.168C103.405 12.456 103.549 12.808 103.549 13.224C103.549 13.64 103.405 13.992 103.117 14.28C102.845 14.568 102.509 14.712 102.109 14.712ZM103.165 16.848V30H100.981V16.848H103.165ZM118.551 16.848V30H116.367V28.056C115.951 28.728 115.367 29.256 114.615 29.64C113.879 30.008 113.063 30.192 112.167 30.192C111.143 30.192 110.223 29.984 109.407 29.568C108.591 29.136 107.943 28.496 107.463 27.648C106.999 26.8 106.767 25.768 106.767 24.552V16.848H108.927V24.264C108.927 25.56 109.255 26.56 109.911 27.264C110.567 27.952 111.463 28.296 112.599 28.296C113.767 28.296 114.687 27.936 115.359 27.216C116.031 26.496 116.367 25.448 116.367 24.072V16.848H118.551ZM138.055 16.608C139.079 16.608 139.991 16.824 140.791 17.256C141.591 17.672 142.223 18.304 142.687 19.152C143.151 20 143.383 21.032 143.383 22.248V30H141.223V22.56C141.223 21.248 140.895 20.248 140.239 19.56C139.599 18.856 138.727 18.504 137.623 18.504C136.487 18.504 135.583 18.872 134.911 19.608C134.239 20.328 133.903 21.376 133.903 22.752V30H131.743V22.56C131.743 21.248 131.415 20.248 130.759 19.56C130.119 18.856 129.247 18.504 128.143 18.504C127.007 18.504 126.103 18.872 125.431 19.608C124.759 20.328 124.423 21.376 124.423 22.752V30H122.239V16.848H124.423V18.744C124.855 18.056 125.431 17.528 126.151 17.16C126.887 16.792 127.695 16.608 128.575 16.608C129.679 16.608 130.655 16.856 131.503 17.352C132.351 17.848 132.983 18.576 133.399 19.536C133.767 18.608 134.375 17.888 135.223 17.376C136.071 16.864 137.015 16.608 138.055 16.608Z" fill="#FAF7F7"/>
<defs>
<linearGradient id="paint0_linear_693_285" x1="16.8171" y1="3.91498" x2="1.50902" y2="19.8611" gradientUnits="userSpaceOnUse">
<stop offset="0.19" stop-color="#D97C5F"/>
<stop offset="0.35" stop-color="#DD8466"/>
<stop offset="0.9" stop-color="#EA9D7A"/>
</linearGradient>
<linearGradient id="paint1_linear_693_285" x1="9.87586" y1="24.6478" x2="0" y2="24.6478" gradientUnits="userSpaceOnUse">
<stop stop-color="#C65F36"/>
<stop offset="0.56" stop-color="#CF6C48"/>
<stop offset="0.61" stop-color="#D16F4C"/>
<stop offset="0.84" stop-color="#DB7F5F"/>
</linearGradient>
<linearGradient id="paint2_linear_693_285" x1="12.0326" y1="25.9802" x2="6.52339" y2="35.9182" gradientUnits="userSpaceOnUse">
<stop offset="0.08" stop-color="#C65F36"/>
<stop offset="0.38" stop-color="#CD6844"/>
<stop offset="0.7" stop-color="#D87758"/>
<stop offset="0.79" stop-color="#DA7D5D"/>
<stop offset="0.93" stop-color="#E59370"/>
<stop offset="0.99" stop-color="#EA9D7A"/>
</linearGradient>
<linearGradient id="paint3_linear_693_285" x1="12.3182" y1="27.4251" x2="15.6069" y2="36.8388" gradientUnits="userSpaceOnUse">
<stop offset="0.1" stop-color="#D87758"/>
<stop offset="0.45" stop-color="#D87859"/>
<stop offset="0.65" stop-color="#DC8060"/>
<stop offset="0.82" stop-color="#E38D6B"/>
<stop offset="0.93" stop-color="#EA9D7A"/>
</linearGradient>
<linearGradient id="paint4_linear_693_285" x1="19.6799" y1="12.6406" x2="19.6799" y2="32.6797" gradientUnits="userSpaceOnUse">
<stop offset="0.19" stop-color="#D97C5F"/>
<stop offset="0.39" stop-color="#F58D6B"/>
</linearGradient>
<linearGradient id="paint5_linear_693_285" x1="21.1603" y1="5.22266" x2="7.04818" y2="13.7092" gradientUnits="userSpaceOnUse">
<stop offset="0.04" stop-color="#DD8466"/>
<stop offset="0.23" stop-color="#EA9D7A"/>
<stop offset="0.48" stop-color="#FBC194"/>
</linearGradient>
<linearGradient id="paint6_linear_693_285" x1="19.6341" y1="10.5459" x2="13.8936" y2="26.9821" gradientUnits="userSpaceOnUse">
<stop stop-color="#D97C5F"/>
<stop offset="0.67" stop-color="#F8A880"/>
</linearGradient>
<linearGradient id="paint7_linear_693_285" x1="12.2806" y1="22.4078" x2="1.40825" y2="28.9433" gradientUnits="userSpaceOnUse">
<stop offset="0.02" stop-color="#C65F28"/>
<stop offset="0.57" stop-color="#D87758"/>
<stop offset="0.91" stop-color="#DD8466"/>
</linearGradient>
<clipPath id="clip0_693_285">
<rect width="25.6209" height="38.4313" fill="white"/>
</clipPath>
</defs>
</svg>
