<svg width="44" height="44" viewBox="0 0 44 44" fill="none" xmlns="http://www.w3.org/2000/svg">
<path d="M21.9984 31C20.9262 31 20.022 30.0964 20.022 29.0215V19.9649C20.0314 18.2896 18.6374 16.9334 16.9874 16.9602C15.3375 16.9334 13.945 18.2896 13.9529 19.9649V29.0215C13.9529 30.1137 13.0675 31 11.9764 31C10.9136 31 10 30.0823 10 29.0215C10 29.0183 10 19.9979 10 19.9979C10 18.0649 10.7817 16.3158 12.0471 15.0492C13.3124 13.7826 15.0565 13 16.9874 13C18.9545 13 20.7315 13.8125 22 15.1231C23.2684 13.814 25.0455 13 27.0125 13C28.9796 13 30.6876 13.7826 31.9529 15.0492C33.2182 16.3158 34 18.0649 34 19.9979V29.0215C34 30.0823 33.0863 31 32.0235 31C30.9325 31 30.0471 30.1137 30.0471 29.0215V19.9649C30.0565 18.2896 28.6625 16.9334 27.0125 16.9602C25.3626 16.9334 23.9701 18.2896 23.978 19.9649V29.0215C23.978 30.0964 23.0738 31 22.0015 31H21.9984Z" fill="#FF9D00"/>
</svg>
