<svg xmlns="http://www.w3.org/2000/svg" width="203" height="202" fill="none" viewBox="0 0 203 202">
    <path stroke="#000" stroke-dasharray="0.01 4" stroke-linecap="round" stroke-width="1.25"
        d="M202 154H1M91.479 154.022V13.852M47.775 197.984l43.704-43.962" />
    <path stroke="#000" stroke-width=".75"
        d="M162.301 5.375c3.19 0 6.327 2.464 9.254 7.167 2.913 4.683 5.552 11.485 7.772 19.923 4.44 16.871 7.19 40.2 7.19 65.981 0 25.782-2.75 49.11-7.19 65.981-2.22 8.438-4.858 15.24-7.772 19.924-2.927 4.703-6.064 7.166-9.254 7.166-3.19-.001-6.327-2.463-9.253-7.166-2.914-4.684-5.552-11.486-7.773-19.924-4.439-16.871-7.19-40.199-7.19-65.98s2.751-49.111 7.19-65.982c2.221-8.438 4.859-15.24 7.773-19.923 2.926-4.703 6.063-7.167 9.253-7.167ZM91.479 154.022 149.022 21.23M91.479 154.022l67.379 36.394M47.707 62.426c-1.901 0-3.81 1.46-5.617 4.346-1.796 2.866-3.427 7.04-4.802 12.23-2.748 10.373-4.453 24.725-4.453 40.592s1.704 30.219 4.453 40.593c1.375 5.19 3.006 9.363 4.802 12.229 1.808 2.886 3.716 4.346 5.617 4.346s3.809-1.46 5.616-4.346c1.796-2.866 3.427-7.039 4.802-12.229 2.749-10.374 4.453-24.726 4.453-40.593s-1.704-30.219-4.453-40.593c-1.375-5.19-3.006-9.363-4.802-12.23-1.807-2.885-3.715-4.345-5.616-4.345ZM91.479 154.022 55.576 71.396M91.479 154.022l-41.805 22.131" />
</svg>
