<svg width="44" height="44" viewBox="0 0 44 44" fill="none" xmlns="http://www.w3.org/2000/svg">
<path fill-rule="evenodd" clip-rule="evenodd" d="M30.3745 21.1511C30.7988 24.762 28.605 28.1685 25.1475 29.2676C21.6898 30.3667 17.9433 28.8486 16.2204 25.6504C13.2828 25.7715 10.6153 24.0291 9.56203 21.3486C9.45721 21.0811 9.48643 20.7794 9.64063 20.537C9.79483 20.2946 10.0554 20.1407 10.3415 20.1231L14.2597 19.8803L13.2869 16.7853C13.03 15.9676 13.199 15.0749 13.7369 14.4079C14.2749 13.7408 15.1102 13.3883 15.9615 13.469C18.0901 13.6724 19.5036 13.6642 20.2021 13.4443C20.9006 13.2244 22.0435 12.4302 23.6308 11.0616C24.2806 10.5022 25.1669 10.3073 25.9899 10.5429C26.8128 10.7785 27.4624 11.413 27.7187 12.2318L28.6816 15.2991L31.9777 13.2727C32.2222 13.1222 32.5236 13.0982 32.7885 13.2081C33.0535 13.3179 33.2498 13.5484 33.3166 13.828C33.9791 16.6093 32.8121 19.55 30.3745 21.1511ZM20.349 31.1608L18.5607 30.3041C17.9351 30.0176 17.1956 30.288 16.9001 30.9113C16.6046 31.5346 16.8627 32.2799 17.4795 32.5848L19.2688 33.4411C19.8944 33.7276 20.634 33.4572 20.9295 32.8339C21.2249 32.2105 20.9669 31.4652 20.35 31.1603L20.349 31.1608ZM32.833 25.8514C32.5428 25.6863 32.1989 25.6439 31.8773 25.7335C31.5558 25.8232 31.2829 26.0375 31.1189 26.3291L30.1434 28.059C29.8239 28.6628 30.0414 29.4115 30.6339 29.7483C31.2264 30.085 31.9791 29.8877 32.3321 29.303L33.3068 27.5728C33.6501 26.9657 33.438 26.1952 32.833 25.8514Z" fill="#58CC02"/>
</svg>
