<svg width="114" height="40" viewBox="0 0 114 40" fill="none" xmlns="http://www.w3.org/2000/svg">
<g clip-path="url(#clip0_57_280)">
<path d="M12.2201 15.5586V13.5686C12.4106 13.5551 12.6024 13.544 12.7977 13.5379C18.1521 13.3663 21.6651 18.2154 21.6651 18.2154C21.6651 18.2154 17.8712 23.5735 13.8035 23.5735C13.2174 23.5735 12.6928 23.4779 12.2201 23.3159V17.28C14.3052 17.5362 14.7236 18.4717 15.9766 20.5953L18.7636 18.2057C18.7636 18.2057 16.7291 15.4923 13.2993 15.4923C12.9267 15.4923 12.5698 15.5193 12.2188 15.5573L12.2201 15.5586ZM12.2188 8.98297V11.9563C12.4106 11.9403 12.6035 11.9281 12.7965 11.9208C20.2421 11.6657 25.0937 18.1297 25.0937 18.1297C25.0937 18.1297 19.5221 25.0178 13.7167 25.0178C13.1848 25.0178 12.6868 24.9676 12.2188 24.8841V26.7221C12.6192 26.7736 13.0341 26.8042 13.4658 26.8042C18.8673 26.8042 22.7747 24.0001 26.5578 20.6799C27.1848 21.1899 29.7523 22.432 30.2806 22.9764C26.6831 26.0379 18.3017 28.5048 13.549 28.5048C13.0907 28.5048 12.6506 28.4766 12.2188 28.4349V31.0171H32.7504V8.98423H12.2201L12.2188 8.98297ZM12.2188 23.3148V24.8841C7.22253 23.9781 5.83566 18.6985 5.83566 18.6985C5.83566 18.6985 8.23432 15.9963 12.2188 15.5586V17.28C12.2188 17.28 12.214 17.28 12.2116 17.28C10.1205 17.0249 8.48758 19.0112 8.48758 19.0112C8.48758 19.0112 9.40291 22.3547 12.2201 23.3172L12.2188 23.3148ZM3.34655 18.4717C3.34655 18.4717 6.30719 14.0296 12.2201 13.5698V11.9587C5.67165 12.4933 0 18.1321 0 18.1321C0 18.1321 3.21149 27.5729 12.2201 28.4373V26.7245C5.60895 25.8785 3.34655 18.4717 3.34655 18.4717Z" fill="#76B900"/>
<path d="M69.6109 12.7784V27.2413H73.6292V12.7784H69.6109ZM38.0074 12.7587V27.2413H42.0606V15.9993L45.2227 16.0103C46.2623 16.0103 46.9822 16.2641 47.4827 16.8073C48.1182 17.4963 48.3775 18.606 48.3775 20.6364V27.2413H52.3042V19.2398C52.3042 13.5287 48.7236 12.7587 45.2214 12.7587H38.0074ZM76.0797 12.7784V27.2401H82.5956C86.0676 27.2401 87.1999 26.6528 88.4264 25.3373C89.2923 24.4127 89.8518 22.3848 89.8518 20.168C89.8518 18.1352 89.3779 16.3218 88.5518 15.1926C87.0636 13.1732 84.9194 12.7784 81.7176 12.7784H76.0797ZM80.0642 15.927H81.7912C84.2972 15.927 85.918 17.0709 85.918 20.0393C85.918 23.0076 84.2972 24.1529 81.7912 24.1529H80.0642V15.927ZM63.8187 12.7784L60.4661 24.2399L57.2534 12.7784H52.9167L57.5054 27.2401H63.2952L67.9202 12.7784H63.8199H63.8187ZM91.721 27.2401H95.7393V12.7784H91.7199V27.2401H91.721ZM102.984 12.7833L97.3735 27.2352H101.335L102.223 24.6813H108.861L109.702 27.2352H114.002L108.351 12.7821H102.984V12.7833ZM105.591 15.4206L108.025 22.1911H103.08L105.591 15.4206Z" fill="black"/>
</g>
<defs>
<clipPath id="clip0_57_280">
<rect width="114.002" height="40" fill="white"/>
</clipPath>
</defs>
</svg>
